<svg height="1038" width="720" xmlns="http://www.w3.org/2000/svg">
<rect height="1038" fill="#555" width="720"></rect>
<text fill="#7f7" font-family="Courier New" font-size="12" xml:space="preserve">
<tspan x="10" y="26">8 megabytes installed</tspan>
<tspan x="10" y="42"></tspan>
<tspan x="10" y="58">node_modules</tspan>
<tspan x="10" y="74">└─┬ node-telegram-bot@0.1.9 </tspan>
<tspan x="10" y="90">  ├── botanio-node@1.0.2 </tspan>
<tspan x="10" y="106">  ├─┬ debug@2.6.3 </tspan>
<tspan x="10" y="122">  │ └── ms@0.7.2 </tspan>
<tspan x="10" y="138">  ├── mime@1.3.4 </tspan>
<tspan x="10" y="154">  ├── q@1.5.0 </tspan>
<tspan x="10" y="170">  └─┬ request@2.81.0 </tspan>
<tspan x="10" y="186">    ├── aws-sign2@0.6.0 </tspan>
<tspan x="10" y="202">    ├── aws4@1.6.0 </tspan>
<tspan x="10" y="218">    ├── caseless@0.12.0 </tspan>
<tspan x="10" y="234">    ├─┬ combined-stream@1.0.5 </tspan>
<tspan x="10" y="250">    │ └── delayed-stream@1.0.0 </tspan>
<tspan x="10" y="266">    ├── extend@3.0.0 </tspan>
<tspan x="10" y="282">    ├── forever-agent@0.6.1 </tspan>
<tspan x="10" y="298">    ├─┬ form-data@2.1.4 </tspan>
<tspan x="10" y="314">    │ └── asynckit@0.4.0 </tspan>
<tspan x="10" y="330">    ├─┬ har-validator@4.2.1 </tspan>
<tspan x="10" y="346">    │ ├─┬ ajv@4.11.7 </tspan>
<tspan x="10" y="362">    │ │ ├── co@4.6.0 </tspan>
<tspan x="10" y="378">    │ │ └─┬ json-stable-stringify@1.0.1 </tspan>
<tspan x="10" y="394">    │ │   └── jsonify@0.0.0 </tspan>
<tspan x="10" y="410">    │ └── har-schema@1.0.5 </tspan>
<tspan x="10" y="426">    ├─┬ hawk@3.1.3 </tspan>
<tspan x="10" y="442">    │ ├── boom@2.10.1 </tspan>
<tspan x="10" y="458">    │ ├── cryptiles@2.0.5 </tspan>
<tspan x="10" y="474">    │ ├── hoek@2.16.3 </tspan>
<tspan x="10" y="490">    │ └── sntp@1.0.9 </tspan>
<tspan x="10" y="506">    ├─┬ http-signature@1.1.1 </tspan>
<tspan x="10" y="522">    │ ├── assert-plus@0.2.0 </tspan>
<tspan x="10" y="538">    │ ├─┬ jsprim@1.4.0 </tspan>
<tspan x="10" y="554">    │ │ ├── assert-plus@1.0.0 </tspan>
<tspan x="10" y="570">    │ │ ├── extsprintf@1.0.2 </tspan>
<tspan x="10" y="586">    │ │ ├── json-schema@0.2.3 </tspan>
<tspan x="10" y="602">    │ │ └── verror@1.3.6 </tspan>
<tspan x="10" y="618">    │ └─┬ sshpk@1.13.0 </tspan>
<tspan x="10" y="634">    │   ├── asn1@0.2.3 </tspan>
<tspan x="10" y="650">    │   ├── assert-plus@1.0.0 </tspan>
<tspan x="10" y="666">    │   ├── bcrypt-pbkdf@1.0.1 </tspan>
<tspan x="10" y="682">    │   ├─┬ dashdash@1.14.1 </tspan>
<tspan x="10" y="698">    │   │ └── assert-plus@1.0.0 </tspan>
<tspan x="10" y="714">    │   ├── ecc-jsbn@0.1.1 </tspan>
<tspan x="10" y="730">    │   ├─┬ getpass@0.1.6 </tspan>
<tspan x="10" y="746">    │   │ └── assert-plus@1.0.0 </tspan>
<tspan x="10" y="762">    │   ├── jodid25519@1.0.2 </tspan>
<tspan x="10" y="778">    │   ├── jsbn@0.1.1 </tspan>
<tspan x="10" y="794">    │   └── tweetnacl@0.14.5 </tspan>
<tspan x="10" y="810">    ├── is-typedarray@1.0.0 </tspan>
<tspan x="10" y="826">    ├── isstream@0.1.2 </tspan>
<tspan x="10" y="842">    ├── json-stringify-safe@5.0.1 </tspan>
<tspan x="10" y="858">    ├─┬ mime-types@2.1.15 </tspan>
<tspan x="10" y="874">    │ └── mime-db@1.27.0 </tspan>
<tspan x="10" y="890">    ├── oauth-sign@0.8.2 </tspan>
<tspan x="10" y="906">    ├── performance-now@0.2.0 </tspan>
<tspan x="10" y="922">    ├── qs@6.4.0 </tspan>
<tspan x="10" y="938">    ├── safe-buffer@5.0.1 </tspan>
<tspan x="10" y="954">    ├── stringstream@0.0.5 </tspan>
<tspan x="10" y="970">    ├─┬ tough-cookie@2.3.2 </tspan>
<tspan x="10" y="986">    │ └── punycode@1.4.1 </tspan>
<tspan x="10" y="1002">    ├── tunnel-agent@0.6.0 </tspan>
<tspan x="10" y="1018">    └── uuid@3.0.1</tspan>
</text>
</svg>
